<svg id="Layer_1" data-name="Layer 1" xmlns="http://www.w3.org/2000/svg" viewBox="0 0 512 512"><defs><style>.cls-1{fill:#141f38;}</style></defs><title>drink-with-cherry-outline</title><path class="cls-1" d="M420.47,64H405.36l39.25-42.52A12.8,12.8,0,0,0,425.8,4.11L370.52,64h-279C56.25,64,38,105.39,62.22,130.62l32.25,35.78,148.73,165v155h-64a12.8,12.8,0,1,0,0,25.6H332.8a12.8,12.8,0,0,0,0-25.6h-64v-155l148.73-165,32.25-35.78C474,105.39,455.75,64,420.47,64ZM256,307.36,152,192h93.38a38.4,38.4,0,0,0,72.41,0H360ZM268.8,179.2A12.8,12.8,0,1,1,281.6,192,12.81,12.81,0,0,1,268.8,179.2ZM431.3,112.9l-.27.28-.26.29-47.7,52.92H317.81a38.4,38.4,0,0,0-72.41,0H128.94l-47.7-52.92-.26-.29-.27-.28a12.83,12.83,0,0,1-2.76-14.6,14.11,14.11,0,0,1,13.59-8.71H420.47a14.11,14.11,0,0,1,13.59,8.71A12.83,12.83,0,0,1,431.3,112.9Z"/></svg>